<svg width="585" height="123" viewBox="0 0 585 123" fill="none" xmlns="http://www.w3.org/2000/svg">
<path d="M0 3.5H113" stroke="white" stroke-width="5"/>
<path d="M112 1L112.5 116" stroke="white" stroke-width="5"/>
<path d="M2.5 2L2.5 117" stroke="white" stroke-width="5"/>
<path d="M0.5 114.5L115 114" stroke="white" stroke-width="5"/>
<rect x="23" y="25" width="77" height="27" fill="white"/>
<rect x="15" y="67" width="77" height="27" fill="white"/>
<path d="M163.05 67.29V78.29C163.05 83.79 160.63 85.77 156.78 85.77C152.93 85.77 150.51 83.79 150.51 78.29V36.71C150.51 31.21 152.93 29.12 156.78 29.12C160.63 29.12 163.05 31.21 163.05 36.71V44.96H174.49V37.48C174.49 25.16 168.33 18.12 156.45 18.12C144.57 18.12 138.41 25.16 138.41 37.48V77.52C138.41 89.84 144.57 96.88 156.45 96.88C168.33 96.88 174.49 89.84 174.49 77.52V67.29H163.05ZM178.532 30H191.182V96H203.282V30H215.932V19H178.532V30ZM239.301 19H221.481V96H233.581V67.07H239.301C251.401 67.07 257.341 60.36 257.341 48.04V38.03C257.341 25.71 251.401 19 239.301 19ZM239.301 30C243.151 30 245.241 31.76 245.241 37.26V48.81C245.241 54.31 243.151 56.07 239.301 56.07H233.581V30H239.301ZM274.275 36.71C274.275 31.21 276.695 29.12 280.545 29.12C284.395 29.12 286.815 31.21 286.815 36.71V78.29C286.815 83.79 284.395 85.88 280.545 85.88C276.695 85.88 274.275 83.79 274.275 78.29V36.71ZM262.175 77.52C262.175 89.84 268.665 96.88 280.545 96.88C292.425 96.88 298.915 89.84 298.915 77.52V37.48C298.915 25.16 292.425 18.12 280.545 18.12C268.665 18.12 262.175 25.16 262.175 37.48V77.52ZM319.429 96H306.999V19H317.779V67.73L322.179 50.79L332.079 19H345.389V96H334.499V41.77L329.549 60.69L319.429 96ZM331.859 1.83999C331.529 5.90999 329.659 6.89999 326.359 6.89999C323.169 6.89999 321.519 5.90999 321.189 1.83999H313.709C313.929 9.31999 317.889 14.05 326.359 14.05C334.939 14.05 339.229 9.31999 339.229 1.83999H331.859ZM389.827 64.1H395.327V78.29C395.327 83.79 392.907 85.77 389.057 85.77C385.207 85.77 382.787 83.79 382.787 78.29V36.71C382.787 31.21 385.207 29.12 389.057 29.12C392.907 29.12 395.327 31.21 395.327 36.71V44.96H406.767V37.48C406.767 25.16 400.607 18.12 388.727 18.12C376.847 18.12 370.687 25.16 370.687 37.48V77.52C370.687 89.84 376.847 96.88 388.727 96.88C400.607 96.88 406.767 89.84 406.767 77.52V53.1H389.827V64.1ZM452.378 96C451.168 93.14 451.058 90.39 451.058 86.65V74.77C451.058 66.74 449.078 60.91 443.028 58.38C448.418 55.85 450.948 50.68 450.948 42.76V36.71C450.948 24.83 445.558 19 433.018 19H414.758V96H426.858V64.65H431.038C436.538 64.65 438.958 67.29 438.958 74.44V86.54C438.958 92.81 439.398 94.02 440.058 96H452.378ZM432.688 30C436.978 30 438.848 32.42 438.848 37.92V45.51C438.848 51.67 436.098 53.65 431.588 53.65H426.858V30H432.688ZM470.346 36.71C470.346 31.21 472.766 29.12 476.616 29.12C480.466 29.12 482.886 31.21 482.886 36.71V78.29C482.886 83.79 480.466 85.88 476.616 85.88C472.766 85.88 470.346 83.79 470.346 78.29V36.71ZM458.246 77.52C458.246 89.84 464.736 96.88 476.616 96.88C488.496 96.88 494.986 89.84 494.986 77.52V37.48C494.986 25.16 488.496 18.12 476.616 18.12C464.736 18.12 458.246 25.16 458.246 37.48V77.52ZM502.519 19V77.63C502.519 89.95 508.679 96.99 520.559 96.99C532.439 96.99 538.599 89.95 538.599 77.63V19H527.159V78.4C527.159 83.9 524.739 85.88 520.889 85.88C517.039 85.88 514.619 83.9 514.619 78.4V19H502.519ZM564.938 19H547.118V96H559.218V67.07H564.938C577.038 67.07 582.978 60.36 582.978 48.04V38.03C582.978 25.71 577.038 19 564.938 19ZM564.938 30C568.788 30 570.878 31.76 570.878 37.26V48.81C570.878 54.31 568.788 56.07 564.938 56.07H559.218V30H564.938Z" fill="white"/>
</svg>
